<?xml version="1.0" encoding="utf-8"?>
<!-- Generator: Adobe Illustrator 26.0.3, SVG Export Plug-In . SVG Version: 6.00 Build 0)  -->
<svg version="1.1" id="Twitter" xmlns="http://www.w3.org/2000/svg" xmlns:xlink="http://www.w3.org/1999/xlink" x="0px" y="0px"
	 viewBox="0 0 71.7 58.3" style="enable-background:new 0 0 71.7 58.3;" xml:space="preserve">
<style type="text/css">
	.st0{fill:url(#twitter-twitter_00000124874643683774701730000009127456168901510560_);}
</style>
<g>
	
		<linearGradient id="twitter-twitter_00000175287036060902305020000000957926637430668942_" gradientUnits="userSpaceOnUse" x1="0.5288" y1="7.6712" x2="60.7788" y2="67.9212" gradientTransform="matrix(1 0 0 -1 0 60)">
		<stop  offset="0" style="stop-color:#fff"/>
		<stop  offset="1" style="stop-color:#fff"/>
	</linearGradient>
	<path id="twitter-twitter" style="fill:url(#twitter-twitter_00000175287036060902305020000000957926637430668942_);" d="M71.7,6.9
		c-2.6,1.2-5.5,2-8.4,2.3c3-1.8,5.4-4.7,6.5-8.1c-2.8,1.7-6,2.9-9.3,3.6C57.7,1.8,53.9,0,49.6,0c-8.1,0-14.7,6.6-14.7,14.7
		c0,1.2,0.1,2.3,0.4,3.4C23.1,17.4,12.2,11.6,5,2.7c-1.3,2.2-2,4.7-2,7.4c0,5.1,2.6,9.6,6.5,12.2c-2.4-0.1-4.7-0.7-6.7-1.8
		c0,0.1,0,0.1,0,0.2c0,7.1,5.1,13.1,11.8,14.4c-1.2,0.3-2.5,0.5-3.9,0.5c-0.9,0-1.9-0.1-2.8-0.3c1.9,5.8,7.3,10.1,13.7,10.2
		c-5,3.9-11.4,6.3-18.3,6.3c-1.2,0-2.4-0.1-3.5-0.2c6.5,4.2,14.2,6.6,22.5,6.6c27,0,41.8-22.4,41.8-41.8c0-0.6,0-1.3,0-1.9
		C67.2,12.4,69.7,9.8,71.7,6.9z"/>
</g>
</svg>
